# xmcd
#
# Track frame offsets: 
#        150
#        12392
#        28544
#        47916
#        65109
#        79668
#        101818
#        120633
#        138077
#        154446
#        171228
#        187705
#        205385
#        223091
#
# Disc length: 3188 seconds
#
# Revision: 1
# Processed by: cddbd v1.5.2PL0 Copyright (c) Steve Scherf et al.
# Submitted via: ExactAudioCopyFreeDBPlugin 1.0
#
DISCID=c80c720e
DTITLE=James Iha - Look to the Sky
DYEAR=2012
DGENRE=Rock
TTITLE0=Make Believe
TTITLE1=Summer Days
TTITLE2=To Who Knows Where
TTITLE3=Till Next Tuesday
TTITLE4=Dream Tonight
TTITLE5=Dark Star
TTITLE6=Appetite
TTITLE7=Gemini
TTITLE8=Waves
TTITLE9=Speed of Love
TTITLE10=4th of July
TTITLE11=A String of Words
TTITLE12=Diamond Eyes
TTITLE13=Stay Lost
EXTD=
EXTT0=
EXTT1=
EXTT2=
EXTT3=
EXTT4=
EXTT5=
EXTT6=
EXTT7=
EXTT8=
EXTT9=
EXTT10=
EXTT11=
EXTT12=
EXTT13=
PLAYORDER=
